<?xml version="1.0" encoding="utf-8"?>
<!-- Generator: Adobe Illustrator 23.0.0, SVG Export Plug-In . SVG Version: 6.00 Build 0)  -->
<svg version="1.1" id="Layer_1" xmlns="http://www.w3.org/2000/svg" xmlns:xlink="http://www.w3.org/1999/xlink" x="0px" y="0px"
	 viewBox="0 0 24 24" style="enable-background:new 0 0 24 24;" xml:space="preserve">
<style type="text/css">
	.st0{fill:none;}
	.st1{fill-rule:evenodd;clip-rule:evenodd;fill:#FFFFFF;}
</style>
<title>Foundation / Icon / 24 / Navigation / Account / 00 Default</title>
<g>
	<path class="st0" d="M0,0h24v24H0V0z"/>
	<g>
		<path id="prefix__a" class="st1" d="M19.3,18.2c-1.2-0.4-1.5-0.5-2-0.8c-2.5-1.1-3.4-2.4-2.8-4.1c0.1-0.4,0.3-0.6,0.6-1.3l0,0
			c0.3-0.6,0.4-0.8,0.5-1.1c0.1-0.1,0.1-0.3,0.2-0.4c0.2-0.6,0.3-1,0.4-2.2l0-0.1l0-0.1c0.4-3.8-0.1-5.2-2.2-6C13.3,2.1,12.7,2,12,2
			h0c-0.3,0-0.5,0-0.8,0c-0.4,0-0.8,0.1-1.1,0.3C7.9,3,7.4,4.5,7.8,8.3l0,0l0,0C7.9,9.5,8,10,8.2,10.6c0.1,0.2,0.1,0.3,0.2,0.4
			c0.1,0.3,0.2,0.5,0.5,1.1l0,0c0.3,0.7,0.5,0.9,0.6,1.3c0.7,1.7-0.3,3-2.8,4.1c-0.6,0.2-0.8,0.3-2,0.8c-1.9,0.6-2.8,1.5-3.1,2.8
			l0,0c0.1,0,0.3,0.1,0.5,0.1c0.8,0.2,1.6,0.3,2.5,0.4c2.3,0.3,5,0.4,7.5,0.4s5.2-0.2,7.5-0.4c1-0.1,1.8-0.2,2.5-0.4
			c0.2,0,0.4-0.1,0.5-0.1C22.2,19.7,21.2,18.9,19.3,18.2L19.3,18.2z M14.3,1.4c2.6,0.9,3.3,2.8,2.9,7l0,0.1l0,0.1
			c-0.1,1.2-0.2,1.7-0.4,2.4c-0.1,0.2-0.1,0.4-0.2,0.5c-0.1,0.3-0.3,0.6-0.5,1.1l0,0c-0.3,0.6-0.4,0.9-0.6,1.2
			c-0.4,1.1,0.2,1.9,2.2,2.8c0.5,0.2,0.8,0.3,2,0.7c2.2,0.8,3.4,1.9,3.8,3.6l0,0.4c0,0.6-1,0.8-3.9,1.2C17.1,22.8,14.5,23,12,23
			c-2.5,0-5.1-0.2-7.6-0.5c-2.9-0.3-3.9-0.5-3.9-1.2l0.1-0.4c0.4-1.7,1.6-2.8,3.8-3.6c1.2-0.4,1.4-0.5,2-0.7c2-0.9,2.7-1.7,2.2-2.8
			c-0.1-0.3-0.3-0.6-0.6-1.2l0,0c-0.2-0.4-0.4-0.7-0.5-1.1c-0.1-0.2-0.1-0.4-0.2-0.5C7,10.2,6.9,9.7,6.8,8.5l0,0l0,0
			C6.4,4.2,7,2.3,9.7,1.4c0.4-0.2,0.9-0.3,1.4-0.3C11.4,1,11.7,1,12,1C12.8,1,13.6,1.1,14.3,1.4z"/>
	</g>
</g>
</svg>
