<?xml version="1.0" encoding="utf-8"?>
<!-- Generator: Adobe Illustrator 23.0.0, SVG Export Plug-In . SVG Version: 6.00 Build 0)  -->
<svg version="1.1" id="Layer_1" xmlns="http://www.w3.org/2000/svg" xmlns:xlink="http://www.w3.org/1999/xlink" x="0px" y="0px"
	 viewBox="0 0 24 24" style="enable-background:new 0 0 24 24;" xml:space="preserve">
<style type="text/css">
	.st0{fill:none;}
	.st1{fill-rule:evenodd;clip-rule:evenodd;fill:#FFFFFF;stroke:#FFFFFF;stroke-miterlimit:10;}
</style>
<title>Foundation / Icon / 24 / Navigation / Bag / Outline / 00 Default</title>
<g>
	<path class="st0" d="M0,0h24v24H0V0z"/>
	<g>
		<path id="prefix__a" class="st1" d="M16.5,6v2h-1V6h-7v2h-1V6H5v3.7c0,1.2-0.1,2.7-0.4,4.9l-0.1,0.8C4.1,18.2,4,19,4,20
			c0,0.5,0,0.9,0,1.1c0.8,0.2,1.5,0.3,2.3,0.4C8.3,21.8,10.2,22,12,22c0.2,0,0.3,0,0.5,0c1.5,0,3-0.2,4.8-0.5c0.2,0,1.8-0.3,2.7-0.5
			c0-0.4,0-0.7,0-1.1c0-1-0.1-1.8-0.5-4.6c0-0.3-0.1-0.6-0.1-0.8c-0.3-2.3-0.4-3.7-0.4-4.9V6C19,6,16.5,6,16.5,6z M7.5,5V4.4
			C7.5,2.2,9.4,1,12,1c2.6,0,4.5,1.3,4.5,3.5V5H20v4.7C20,14,21.9,22,20.5,22c-0.6,0-4.6,1-8.5,1c-4.2,0-8.5-1-8.5-1
			C2.1,22,4,14,4,9.7V5H7.5z M8.5,5h7V4.5C15.5,2.9,14.2,2,12,2C9.9,2,8.5,2.9,8.5,4.4L8.5,5L8.5,5z"/>
	</g>
</g>
</svg>
