<?xml version="1.0" encoding="utf-8"?>
<!-- Generator: Adobe Illustrator 23.0.0, SVG Export Plug-In . SVG Version: 6.00 Build 0)  -->
<svg version="1.1" id="Layer_1" xmlns="http://www.w3.org/2000/svg" xmlns:xlink="http://www.w3.org/1999/xlink" x="0px" y="0px"
	 viewBox="0 0 24 24" style="enable-background:new 0 0 24 24;" xml:space="preserve">
<style type="text/css">
	.st0{fill:none;}
	.st1{fill-rule:evenodd;clip-rule:evenodd;fill:#F7F9F7;}
</style>
<title>Foundation / Icon / 24 / Control / Favourite / 00 Inactive Outline</title>
<g>
	<path class="st0" d="M0,0h24v24H0V0z"/>
	<g>
		<path id="prefix__a" class="st1" d="M17.4,1C21.5,1,24,3.6,24,7.8c0,1.6-1,3.6-2.7,6c-0.9,1.2-2,2.4-3.2,3.7
			c-1.3,1.3-2.6,2.6-4,3.9c-0.6,0.5-1.2,1.1-1.8,1.6L12,23.2l-0.3-0.3c-0.1-0.1-0.3-0.2-0.5-0.4c-0.4-0.3-0.8-0.7-1.3-1.2
			c-1.4-1.2-2.7-2.5-4-3.9c-1.2-1.3-2.3-2.5-3.2-3.7C1,11.4,0,9.4,0,7.8C0,3.6,2.5,1,6.6,1c2.1,0,4.2,1.6,5.4,3.6
			C13.1,2.6,15.3,1,17.4,1z M12,21.8l0.2-0.2c0.4-0.3,0.8-0.7,1.3-1.1c1.3-1.2,2.6-2.4,3.9-3.7c1.2-1.2,2.2-2.4,3.1-3.6
			c1.6-2.1,2.5-3.9,2.5-5.3c0-3.6-2.1-5.7-5.6-5.7c-1.9,0-4,1.8-4.8,3.8L12,7.1L11.6,6c-0.8-2.1-2.9-3.8-4.8-3.8
			c-3.5,0-5.6,2.1-5.6,5.7c0,1.3,0.9,3.2,2.5,5.3c0.8,1.1,1.9,2.3,3.1,3.6c1.2,1.3,2.5,2.5,3.9,3.7C11,20.9,11.5,21.4,12,21.8
			L12,21.8z"/>
	</g>
</g>
</svg>
